<?xml version="1.0" ?><!DOCTYPE svg  PUBLIC '-//W3C//DTD SVG 1.1//EN'  'http://www.w3.org/Graphics/SVG/1.1/DTD/svg11.dtd'><svg height="8.4666mm" style="shape-rendering:geometricPrecision; text-rendering:geometricPrecision; image-rendering:optimizeQuality; fill-rule:evenodd; clip-rule:evenodd" version="1.1" viewBox="0 0 846.66 846.66" width="8.4666mm" xml:space="preserve" xmlns="http://www.w3.org/2000/svg" xmlns:xlink="http://www.w3.org/1999/xlink"><defs><style type="text/css">
   <![CDATA[
    .fil0 {fill:black;fill-rule:nonzero}
   ]]>
  </style></defs><g id="Layer_x0020_1"><path class="fil0" d="M28.92 161.63l788.82 0c11.47,0 20.77,9.3 20.77,20.77l0 481.86c0,11.47 -9.3,20.77 -20.77,20.77l-788.82 0c-11.47,0 -20.77,-9.3 -20.77,-20.77l0 -481.86c0,-11.47 9.3,-20.77 20.77,-20.77zm335.52 214.65c-27.32,0 -27.32,-41.53 0,-41.53l316.65 -2.6c27.31,0 27.31,41.53 0,41.53l-316.65 2.6zm-246.29 74.95c-27.31,0 -27.31,-41.53 0,-41.53l563.96 0c27.31,0 27.31,41.53 0,41.53l-563.96 0zm-68.47 64.9l747.3 0 0 -312.97 -747.3 0 0 312.97zm747.3 69.61l-747.3 0 0 57.76 747.3 0 0 -57.76zm-608.34 -358.07c42.52,0 76.98,34.46 76.98,76.98 0,42.51 -34.46,76.98 -76.98,76.98 -42.51,0 -76.98,-34.47 -76.98,-76.98 0,-42.52 34.47,-76.98 76.98,-76.98zm0 41.52c-19.58,0 -35.45,15.87 -35.45,35.46 0,19.58 15.87,35.45 35.45,35.45 19.59,0 35.46,-15.87 35.46,-35.45 0,-19.59 -15.87,-35.46 -35.46,-35.46z"/></g></svg>